# xmcd CD database file
#
# Track frame offsets:
#	150
#	12040
#	27302
#	43982
#	58185
#	75437
#	91752
#	109860
#	126810
#	141247
#	155122
#	173725
#	191652
#
# Disc length: 2753 seconds
#
# Revision: 0
# Processed by: cddbd v1.5.1PL2 Copyright (c) Steve Scherf et al.
# Submitted via: CDex 1.70beta2
#
DISCID=aa0abf0d
DTITLE=Various Artist - Universal Country
DYEAR=2000
DGENRE=Country
TTITLE0=01 - Eric Heatherly - Wrong 5 O'Clock
TTITLE1=02 - Aaron Tippin - People Like Us
TTITLE2=03 - Toby Keith - You Shouldn't Kiss Me Like This
TTITLE3=04 - Neal Coty - Legacy
TTITLE4=5 - Allsion Moorer - Think It Over
TTITLE5=06 - Jessica Andrews - Who I Am
TTITLE6=07 - Sonja Issacs - How Can I Forget
TTITLE7=08 - McAlyster - I Know How the River Feels
TTITLE8=09 - The Soggy Bottom Boys - I Am A Man Of Constant Sorrow
TTITLE9=10 - Jason McCoy - Dear Santa
TTITLE10=11 - Faith Hill - Where Are You Christmas
TTITLE11=12 - SHeDAISY - Jingle Bells
TTITLE12=13 - George Strait - Old Time Christmas
EXTD=YEAR: 2000
EXTT0=
EXTT1=
EXTT2=
EXTT3=
EXTT4=
EXTT5=
EXTT6=
EXTT7=
EXTT8=
EXTT9=
EXTT10=
EXTT11=
EXTT12=
PLAYORDER=
